<?xml version="1.0" encoding="UTF-8"?>
<svg width="512" height="512" viewBox="0 0 512 512" fill="none" xmlns="http://www.w3.org/2000/svg">
  <rect width="512" height="512" rx="100" fill="#F4B971"/>
  <path d="M240 150C240 127.909 257.909 110 280 110V110C302.091 110 320 127.909 320 150V300C320 322.091 302.091 340 280 340V340C257.909 340 240 322.091 240 300V150Z" fill="#4CAF50"/>
  <path d="M320 200C320 177.909 337.909 160 360 160V160C382.091 160 400 177.909 400 200V300C400 322.091 382.091 340 360 340V340C337.909 340 320 322.091 320 300V200Z" fill="#2E7D32"/>
  <path d="M160 250C160 227.909 177.909 210 200 210V210C222.091 210 240 227.909 240 250V300C240 322.091 222.091 340 200 340V340C177.909 340 160 322.091 160 300V250Z" fill="#4CAF50"/>
  <circle cx="170" cy="170" r="40" fill="white"/>
</svg> 