<svg width="120" height="32" viewBox="0 0 120 32" fill="none" xmlns="http://www.w3.org/2000/svg">
  <path d="M60.0781 10.0332C56.2578 10.0332 53.3594 12.8262 53.3594 16.7988C53.3594 20.7715 56.1973 23.4883 60.1387 23.4883C62.2168 23.4883 63.8281 22.8516 64.9805 21.7891V23.1855H68.1855V10.3359H64.9805V11.6152C63.9375 10.6504 62.3613 10.0332 60.0781 10.0332ZM60.7754 20.3125C58.4922 20.3125 56.9355 18.8359 56.9355 16.7988C56.9355 14.7617 58.4922 13.2852 60.7754 13.2852C62.0137 13.2852 63.1074 13.7793 63.7949 14.6465V18.9512C63.1074 19.8184 62.0137 20.3125 60.7754 20.3125Z" fill="#635BFF"/>
  <path d="M76.6016 23.4883C78.3594 23.4883 79.8965 22.9355 80.959 21.5566V23.1855H84.0469V4.25781H80.8418V11.8789C79.7012 10.6699 78.1641 10.0332 76.4219 10.0332C72.5234 10.0332 69.6152 12.8965 69.6152 16.7988C69.6152 20.7012 72.5234 23.4883 76.6016 23.4883ZM77.0996 20.1406C74.8164 20.1406 73.1914 18.8711 73.1914 16.7988C73.1914 14.7266 74.8164 13.4566 77.0996 13.4566C78.3027 13.4566 79.543 13.9805 80.2832 14.9219V18.6758C79.543 19.6172 78.3027 20.1406 77.0996 20.1406Z" fill="#635BFF"/>
  <path d="M92.1484 23.4883C96.0469 23.4883 99 20.6953 99 16.7988C99 12.9023 96.0469 10.0332 92.1484 10.0332C88.25 10.0332 85.3008 12.9023 85.3008 16.7988C85.3008 20.6953 88.25 23.4883 92.1484 23.4883ZM92.1484 20.1758C90.0352 20.1758 88.7266 18.7344 88.7266 16.7988C88.7266 14.8633 90.0352 13.3457 92.1484 13.3457C94.2617 13.3457 95.5703 14.8633 95.5703 16.7988C95.5703 18.7344 94.2617 20.1758 92.1484 20.1758Z" fill="#635BFF"/>
  <path d="M17.0871 6L7.15527 9.78345L5 13.913L7.87402 23.1389L17.0871 26L28 18.6522L25.3613 10.087L17.0871 6Z" fill="#635BFF"/>
  <path d="M24.3488 13.3239L20.5 15.6522L22.8049 20.6522L17.0869 16.6994L11.5 19.8696L12.5792 15.0272L9 12.913L14.7236 11.5L17 6.91305L19.5 10.1522L24.3488 13.3239Z" fill="white"/>
</svg> 